<svg width="18" height="22" viewBox="0 0 18 22" fill="none" xmlns="http://www.w3.org/2000/svg">
<path d="M6.99031 16L6.01531 16.474C4.03531 17.022 3.04431 17.296 2.51031 16.719C1.97631 16.143 2.25231 15.099 2.80531 13.009L2.94731 12.469C3.10431 11.874 3.18331 11.578 3.14431 11.283C3.10431 10.989 2.95131 10.73 2.64531 10.213L2.36731 9.743C1.29031 7.922 0.752311 7.012 1.11031 6.287C1.47031 5.563 2.48931 5.504 4.52831 5.387L5.05531 5.357C5.63531 5.323 5.92431 5.307 6.17731 5.172C6.42931 5.037 6.61631 4.8 6.99031 4.324L7.33031 3.892C8.64631 2.219 9.30431 1.383 10.0603 1.512C10.8163 1.641 11.1703 2.649 11.8773 4.666L12.0603 5.188C12.2613 5.761 12.3623 6.048 12.5573 6.258C12.7533 6.47 13.0213 6.582 13.5583 6.805L14.0473 7.009C15.9373 7.795 16.8823 8.18899 16.9893 8.99199C17.0813 9.67799 16.5123 10.275 15.3493 11.282" stroke="black" stroke-width="1.5"/>
<path d="M12.2522 10.189C11.2652 9.00896 10.7722 8.41896 10.2042 8.50896C9.63723 8.59996 9.37223 9.31196 8.84223 10.736L8.70423 11.104C8.55423 11.509 8.47823 11.711 8.33123 11.86C8.18523 12.009 7.98323 12.088 7.58123 12.246L7.21423 12.389C5.79723 12.944 5.08823 13.222 5.00723 13.789C4.92623 14.356 5.52723 14.838 6.72823 15.8L7.03823 16.05C7.38023 16.323 7.55123 16.46 7.64923 16.647C7.74923 16.834 7.76423 17.051 7.79523 17.484L7.82423 17.878C7.93423 19.401 7.99023 20.163 8.50723 20.423C9.02423 20.683 9.66123 20.268 10.9342 19.44L11.2632 19.225C11.6252 18.99 11.8062 18.872 12.0132 18.838C12.2212 18.805 12.4332 18.86 12.8542 18.97L13.2392 19.07C14.7242 19.456 15.4672 19.65 15.8682 19.243C16.2692 18.836 16.0612 18.099 15.6472 16.623L15.5392 16.243C15.4222 15.823 15.3632 15.613 15.3922 15.406C15.4222 15.198 15.5372 15.016 15.7662 14.65L15.9762 14.318C16.7832 13.033 17.1862 12.391 16.9162 11.88C16.6472 11.369 15.8832 11.327 14.3542 11.245L13.9582 11.223C13.5242 11.2 13.3062 11.188 13.1172 11.093C12.9272 10.998 12.7872 10.83 12.5072 10.494L12.2522 10.189Z" stroke="black" stroke-width="1.5"/>
</svg>
